Coordinates
version=1
nRows=22
nColumns=24
inDegrees=yes

Units are S.I. units (second, meters, Newtons, ...)
Angles are in degrees.

endheader
time	pelvis_tilt	pelvis_list	pelvis_rotation	pelvis_tx	pelvis_ty	pelvis_tz	hip_flexion_r	hip_adduction_r	hip_rotation_r	knee_angle_r	ankle_angle_r	subtalar_angle_r	mtp_angle_r	hip_flexion_l	hip_adduction_l	hip_rotation_l	knee_angle_l	ankle_angle_l	subtalar_angle_l	mtp_angle_l	lumbar_extension	lumbar_bending	lumbar_rotation
      5.70000000	     -1.46497590	     -1.73345523	      5.14768555	      2.48187153	      0.95583328	     -0.19941239	      6.39654296	      5.65847200	     -9.43395017	     -9.91162664	     14.73333315	      3.76695391	      0.00000000	     22.19332938	      0.05753709	     -2.89231301	    -54.68926294	      8.61996282	     -0.29141516	      0.00000000	    -17.52384871	      4.54430076	     -1.08581692
      5.71000000	     -1.52237700	     -1.69118819	      4.83229999	      2.49381859	      0.95621051	     -0.19863401	      5.21417260	      5.79628903	     -9.19727002	     -9.05154893	     14.99822494	      3.96122654	      0.00000000	     23.10255466	      0.14166319	     -3.22681972	    -52.81673924	      8.83439101	     -0.44938788	      0.00000000	    -17.54352263	      4.35881396	     -0.78493888
      5.72000000	     -1.61350074	     -1.72064137	      4.49084706	      2.50573504	      0.95621079	     -0.19786678	      4.10392552	      5.99101416	     -8.97248823	     -8.24205960	     15.26565697	      4.18170314	      0.00000000	     23.98154210	      0.13910573	     -3.54257997	    -50.76414205	      9.10586871	     -0.56666830	      0.00000000	    -17.51736437	      4.25839490	     -0.49893393
      5.73000000	     -1.63757211	     -1.79166679	      4.15440090	      2.51768713	      0.95601419	     -0.19714419	      2.92799018	      6.22304374	     -8.73816570	     -7.44696043	     15.55468435	      4.38796411	      0.00000000	     24.69979716	      0.09530021	     -3.78476811	    -48.50642212	      9.28999829	     -0.58602600	      0.00000000	    -17.56234732	      4.21251086	     -0.18795941
      5.74000000	     -1.66731148	     -1.91809950	      3.79818199	      2.52968107	      0.95548795	     -0.19644001	      1.77860674	      6.50189317	     -8.45748610	     -6.69517805	     15.86225993	      4.56608940	      0.00000000	     25.33994714	     -0.00949046	     -3.98226101	    -46.06579513	      9.48995519	     -0.54393275	      0.00000000	    -17.58316084	      4.23326404	      0.13309728
      5.75000000	     -1.70891118	     -2.10215386	      3.43684894	      2.54175119	      0.95461875	     -0.19576808	      0.65313332	      6.83017183	     -8.13804254	     -5.97713340	     16.20354253	      4.72152346	      0.00000000	     25.90955835	     -0.17479029	     -4.12614572	    -43.45403196	      9.68643654	     -0.44649862	      0.00000000	    -17.56111920	      4.31772402	      0.42913224
      5.76000000	     -1.67314538	     -2.31243393	      3.12362053	      2.55393160	      0.95356179	     -0.19521420	     -0.58583880	      7.18974730	     -7.68513307	     -5.22441262	     16.43917416	      4.56708604	      0.00000000	     26.29932635	     -0.33962074	     -4.13714014	    -40.65752786	      9.84829840	     -0.17404266	      0.00000000	    -17.61120299	      4.45058458	      0.68808482
      5.77000000	     -1.68214232	     -2.54679130	      2.78146048	      2.56622037	      0.95216396	     -0.19467755	     -1.74570018	      7.54863005	     -7.33776855	     -4.55377084	     16.80810598	      4.63433127	      0.00000000	     26.63371595	     -0.53243022	     -4.09438503	    -37.68376156	      9.91830304	      0.14564843	      0.00000000	    -17.57813565	      4.59795571	      0.97201325
      5.78000000	     -1.68132880	     -2.80738454	      2.46619384	      2.57862832	      0.95050212	     -0.19425100	     -2.92457804	      7.92484831	     -6.96174913	     -3.89200804	     17.23197023	      4.65301770	      0.00000000	     26.86198546	     -0.73357695	     -3.92617684	    -34.55432515	      9.96106300	      0.53018300	      0.00000000	    -17.53740666	      4.79215285	      1.18404548
      5.79000000	     -1.64280435	     -3.07306814	      2.15915561	      2.59114703	      0.94868498	     -0.19391299	     -4.14017872	      8.29233535	     -6.56374229	     -3.26522650	     17.53816527	      4.55621987	      0.00000000	     26.93063534	     -0.92197077	     -3.58771977	    -31.24301105	      9.93434307	      0.94674686	      0.00000000	    -17.53486125	      5.00073043	      1.40913699
      5.80000000	     -1.63419800	     -3.33768243	      1.84093710	      2.60377689	      0.94662643	     -0.19361772	     -5.30543766	      8.63849792	     -6.14728066	     -2.70183539	     17.95903318	      4.48496133	      0.00000000	     26.91362586	     -1.11110945	     -3.10306102	    -27.77025030	      9.80383126	      1.22943789	      0.00000000	    -17.48545484	      5.19908943	      1.61047546
      5.81000000	     -1.61625503	     -3.59027964	      1.50792588	      2.61651663	      0.94443554	     -0.19336939	     -6.46023727	      8.94864884	     -5.73378483	     -2.20609702	     18.39042132	      4.42767482	      0.00000000	     26.75235124	     -1.29400602	     -2.42237322	    -24.12391195	      9.54399739	      1.24168409	      0.00000000	    -17.44690102	      5.38237353	      1.81737811
      5.82000000	     -1.61790472	     -3.83995968	      1.17586529	      2.62935665	      0.94208046	     -0.19319296	     -7.56427579	      9.23189003	     -5.26824072	     -1.79546294	     18.82829335	      4.30922783	      0.00000000	     26.47580098	     -1.46873117	     -1.41201918	    -20.31542242	      9.05092922	      0.66957049	      0.00000000	    -17.38674923	      5.56371183	      1.99239082
      5.83000000	     -1.57891654	     -4.08471908	      0.78779816	      2.64230348	      0.93969462	     -0.19297290	     -8.66736124	      9.47753175	     -4.80005230	     -1.50040750	     19.30367170	      4.29194004	      0.00000000	     26.01593786	     -1.70136412	     -0.21454780	    -16.38137215	      8.35653861	     -0.44732919	      0.00000000	    -17.39345183	      5.72478699	      2.23893226
      5.84000000	     -1.56782874	     -4.34001577	      0.33863915	      2.65538582	      0.93716411	     -0.19267777	     -9.69576326	      9.69838381	     -4.24805717	     -1.32705359	     19.78339165	      4.30447848	      0.00000000	     25.46783703	     -2.02286431	      1.16440980	    -12.40670916	      7.41494214	     -2.30612449	      0.00000000	    -17.36588122	      5.86923077	      2.55977342
      5.85000000	     -1.51679199	     -4.64352341	     -0.13926742	      2.66857150	      0.93458767	     -0.19231294	    -10.72000011	      9.94009627	     -3.64217462	     -1.27514632	     20.24523232	      4.32965116	      0.00000000	     24.84699085	     -2.49514783	      2.38893725	     -8.58976451	      6.32257982	     -4.46080592	      0.00000000	    -17.40123634	      6.04844010	      2.94048850
      5.86000000	     -1.46153986	     -4.97577668	     -0.64293550	      2.68184190	      0.93196125	     -0.19187948	    -11.69261972	     10.18048385	     -2.97864299	     -1.35871819	     20.67056221	      4.34103935	      0.00000000	     24.29632646	     -3.07978280	      2.95092534	     -5.16840807	      5.32459056	     -6.28029092	      0.00000000	    -17.45670603	      6.23463967	      3.37936428
      5.87000000	     -1.39422790	     -5.29176180	     -1.14648137	      2.69518918	      0.92938005	     -0.19147928	    -12.61665699	     10.37086116	     -2.29505508	     -1.58054257	     21.05467011	      4.35823619	      0.00000000	     23.88256702	     -3.64974409	      2.52281927	     -2.33290392	      4.66357317	     -7.22275057	      0.00000000	    -17.54436513	      6.39076297	      3.83787594
      5.88000000	     -1.35510376	     -5.54709505	     -1.63249429	      2.70861375	      0.92686281	     -0.19121055	    -13.41893952	     10.46384075	     -1.72456125	     -1.98315412	     21.48634940	      4.52888115	      0.00000000	     23.66370496	     -4.08312043	      1.34762376	     -0.18065523	      4.28296366	     -7.51620759	      0.00000000	    -17.60933182	      6.47791221	      4.27285032
      5.89000000	     -1.20089981	     -5.71505848	     -2.03919994	      2.72216327	      0.92464744	     -0.19120853	    -14.30498436	     10.43961854	     -1.18104160	     -2.45894502	     21.79064978	      4.63282520	      0.00000000	     23.45598088	     -4.31560466	     -0.00150645	      1.28195633	      4.06406921	     -7.72553230	      0.00000000	    -17.82823404	      6.48609862	      4.64275658
      5.90000000	     -1.15428209	     -5.82693769	     -2.40790834	      2.73580337	      0.92246909	     -0.19137056	    -14.97677489	     10.33925145	     -0.73570706	     -3.11120445	     21.96417066	      4.80435881	      0.00000000	     23.50168198	     -4.42633684	     -1.20265687	      2.00433142	      3.90622427	     -8.03795430	      0.00000000	    -17.91463591	      6.43756637	      5.02622986
      5.91000000	     -0.98554036	     -5.80420087	     -2.65111239	      2.74959061	      0.92069226	     -0.19181181	    -15.70061515	     10.09264214	     -0.44010628	     -3.88633794	     22.03378887	      4.94700491	      0.00000000	     23.59378363	     -4.32260727	     -2.69679596	      1.91947815	      4.19355392	     -7.53528950	      0.00000000	    -18.15495972	      6.24953975	      5.23557684
